<svg id="Layer_1" data-name="Layer 1" xmlns="http://www.w3.org/2000/svg" viewBox="0 0 82.68 56.42"><defs><style>.cls-1{fill:#1d1d1b;}</style></defs><path class="cls-1" d="M28.53,51.58a.24.24,0,0,1-.22-.14,25.29,25.29,0,0,1-2.18-8.21,23.49,23.49,0,0,1,3.05-14.49c2.49-4.06,6.09-6.51,10.14-6.9s8,1.33,11.27,4.84a23.47,23.47,0,0,1,5.75,13.64A24.93,24.93,0,0,1,55.1,51a.24.24,0,0,1-.3.14.23.23,0,0,1-.14-.3,24.6,24.6,0,0,0,1.21-10.49A23,23,0,0,0,50.24,27c-3.12-3.4-7-5.06-10.88-4.68S32,25.06,29.58,29a23.06,23.06,0,0,0-3,14.2,25.07,25.07,0,0,0,2.14,8.05.24.24,0,0,1-.11.32Z" transform="translate(-8.66 -21.79)"/><path class="cls-1" d="M45.23,61.31l-.11-.46c4.29-1.22,7.79-4.94,9.6-10.19a24.33,24.33,0,0,0,1.15-10.29,23.7,23.7,0,0,0-4.71-12.29,14.41,14.41,0,0,0-9.28-5.72l0-.47L84,25.46a4.19,4.19,0,0,1,3,1.64,22.8,22.8,0,0,1,4.17,9.8c.73,4.09-.8,11.25-3.2,15a4.16,4.16,0,0,1-2.72,1.84ZM44.75,22.6a16.09,16.09,0,0,1,6.78,5.19,24.12,24.12,0,0,1,4.81,12.53,25,25,0,0,1-1.17,10.5,16.66,16.66,0,0,1-7.64,9.58l37.62-7.1a3.66,3.66,0,0,0,2.41-1.62c2.57-4,3.77-11.09,3.13-14.69a22.4,22.4,0,0,0-4.07-9.61A3.69,3.69,0,0,0,84,25.94ZM55,50.74Z" transform="translate(-8.66 -21.79)"/><path class="cls-1" d="M55.25,59.42l.53-.53A24,24,0,0,0,59.19,54a23,23,0,0,0,2.7-12.71A32,32,0,0,0,57.7,27.66a19.27,19.27,0,0,0-3.36-4.29l-.57-.48,25,2.13.06,0A15.39,15.39,0,0,1,82,28.62a19.09,19.09,0,0,1,3.16,10.67c0,8.5-5.16,15.34-5.21,15.41l-.06.07Zm-.11-35.93a21.08,21.08,0,0,1,3,3.91,32.22,32.22,0,0,1,4.27,13.81,23.47,23.47,0,0,1-2.76,13,25.47,25.47,0,0,1-3,4.5l23.06-4.35c.55-.75,5.07-7.18,5.07-15.05A18.6,18.6,0,0,0,81.65,28.9a15.53,15.53,0,0,0-3-3.42Z" transform="translate(-8.66 -21.79)"/><path class="cls-1" d="M68.06,35.89a.53.53,0,0,1-.16-1s2.19-.74,1.88-2.22c-.45-2.18-3.41-1.84-3.53-1.82a.55.55,0,0,1-.6-.47.54.54,0,0,1,.46-.59c1.4-.18,4.19.15,4.71,2.67.4,1.93-1.52,3.1-2.59,3.44A.51.51,0,0,1,68.06,35.89Z" transform="translate(-8.66 -21.79)"/><path class="cls-1" d="M68.63,49.89a.53.53,0,0,1-.06-1.06c.73-.08,2.71-.54,3-1.65.57-2.2-2.52-3-2.65-3.08a.53.53,0,0,1-.38-.65.53.53,0,0,1,.65-.38,6.63,6.63,0,0,1,2,.91,3.07,3.07,0,0,1,1.46,3.47c-.53,2-3.78,2.42-3.92,2.44Z" transform="translate(-8.66 -21.79)"/><path class="cls-1" d="M75.72,42.24h-.1c-1.69-.09-1.91-2.89-1.92-4.09a3.72,3.72,0,0,1,.82-2.64,1.3,1.3,0,0,1,1-.39c1.11.06,1.75,1.25,1.89,3.54.09,1.56-.13,2.63-.66,3.16A1.4,1.4,0,0,1,75.72,42.24Zm-.27-6.65a.84.84,0,0,0-.6.26,3.26,3.26,0,0,0-.68,2.29c0,.84.14,3.56,1.48,3.62a.94.94,0,0,0,.77-.27c.43-.43.61-1.4.52-2.8-.12-2-.6-3-1.44-3.1h0Z" transform="translate(-8.66 -21.79)"/><path class="cls-1" d="M54.09,78.21c-2.83,0-6.94-.26-8.36-1.68A2.05,2.05,0,0,1,45,75c.05-.72.71-1.22,1.3-1.66s.93-.7.94-1-.17-.49-.53-.78c-1.7-1.42-8.31-1-15.3-.47-2.88.2-5.85.4-8.69.5-6.72.22-11.74-1-13.43-3.35a3,3,0,0,1-.41-2.85c1.26-3.49,10.76-4.23,14.34-4.51h0c1.44-.11,2.38-.57,2.64-1.28a2.16,2.16,0,0,0-.79-2.13A3.63,3.63,0,0,1,24,54c.25-.91,1.1-2.12,3.76-2.75C32.57,50.11,54,50.49,55,50.5h.31l-.09.29a15.31,15.31,0,0,1-5.85,8.41,16.24,16.24,0,0,1-1.93,1.18c4.69-.9,15.21-2.91,17.68-3.33l.07,0,.07,0A3.18,3.18,0,0,1,66.87,59a4.23,4.23,0,0,1-.34,3.17c-.42.8.3,1.35,1.83,2.42A17.67,17.67,0,0,1,72,67.63,4.08,4.08,0,0,1,73,71.35c-.47,1.92-2.48,3.67-5.66,5-2.36,1-7,1.7-11.55,1.87C55.36,78.19,54.76,78.21,54.09,78.21ZM41,70.09c2.9,0,5.07.26,6,1.06a1.52,1.52,0,0,1,.69,1.15c0,.58-.55,1-1.13,1.42s-1.07.81-1.11,1.31a1.65,1.65,0,0,0,.62,1.16c2.51,2.52,16.34,1.62,21.14-.32,3-1.21,5-2.89,5.38-4.63a3.63,3.63,0,0,0-1-3.3,17.19,17.19,0,0,0-3.5-3c-1.46-1-2.61-1.82-2-3a3.78,3.78,0,0,0,.31-2.81,2.68,2.68,0,0,0-1.35-1.57c-3.36.58-19.69,3.71-19.85,3.75l-.11-.46a14.08,14.08,0,0,0,4-2A14.82,14.82,0,0,0,54.63,51c-2.71,0-22.32-.32-26.77.74-1.93.46-3.11,1.29-3.42,2.41a3.17,3.17,0,0,0,1,3,2.57,2.57,0,0,1,.9,2.63c-.23.64-.95,1.43-3,1.59h-.05c-3.16.24-12.78,1-13.93,4.2a2.49,2.49,0,0,0,.34,2.41c1.6,2.19,6.48,3.37,13,3.15,2.83-.09,5.8-.3,8.68-.5C34.92,70.32,38.26,70.09,41,70.09Z" transform="translate(-8.66 -21.79)"/><path class="cls-1" d="M77.17,40.73l-.22,0a2.27,2.27,0,0,1-1.61-2.31c0-1.22,1.32-1.69,1.38-1.71l.21-.08.08.21a6.42,6.42,0,0,1,.22,3.72Zm-.52-3.53a1.4,1.4,0,0,0-.84,1.16,1.93,1.93,0,0,0,1,1.79A6.18,6.18,0,0,0,76.65,37.2Z" transform="translate(-8.66 -21.79)"/></svg>